<svg width="24" height="24" viewBox="0 0 24 24" fill="none" xmlns="http://www.w3.org/2000/svg">
<path fill-rule="evenodd" clip-rule="evenodd" d="M9.9799 16.4789C6.38786 16.4789 3.47594 13.5669 3.47594 9.97491C3.47594 6.38287 6.38786 3.47095 9.9799 3.47095C13.5719 3.47095 16.4839 6.38287 16.4839 9.97491C16.4839 11.0262 16.2344 12.0193 15.7915 12.8982C15.576 13.3258 15.6191 13.8535 15.9577 14.1921L20.3985 18.6329C20.789 19.0234 20.7891 19.6566 20.3985 20.0471L20.045 20.4007C19.6544 20.7912 19.0213 20.7912 18.6308 20.4007L14.1876 15.9575C13.8495 15.6194 13.3225 15.5759 12.8951 15.7905C12.0183 16.2309 11.028 16.4789 9.9799 16.4789ZM9.9799 13.9789C12.1912 13.9789 13.9839 12.1862 13.9839 9.97491C13.9839 7.76358 12.1912 5.97095 9.9799 5.97095C7.76857 5.97095 5.97594 7.76358 5.97594 9.97491C5.97594 12.1862 7.76857 13.9789 9.9799 13.9789Z" fill="white"/>
</svg>
